<svg version="1.2" xmlns="http://www.w3.org/2000/svg" viewBox="0 0 1080 276" width="1080" height="276">
	<title>railway</title>
	<style>
		.s0 { fill: #000000 } 
		.s1 { fill: #ffffff } 
	</style>
	<g id="a4725f09-aed6-46ce-8857-dd54367b3a3c">
		<path fill-rule="evenodd" class="s0" d="m0-398h1080v1080h-1080z"/>
	</g>
	<g id="80b0891c-d866-4615-8728-45a8f1dfcc87">
	</g>
	<g>
		<g>
			<g>
				<path class="s1" d="m92.5 127.3q-0.8 5.1-1 10.3h155.1c-0.6-1.1-1.3-2.1-2-3-26.5-34.2-40.8-31.3-61.2-32.1-6.8-0.3-11.4-0.4-38.5-0.4-14.5 0-30.2 0-45.6 0-1.9 5.4-3.9 10.6-4.8 14.8h79.5v10.4zm155.3 20.6h-156.2q0.2 4.2 0.8 8.2h144.2c6.5 0 10.1-3.7 11.2-8.2zm-147.3 36.4c0 0 23.9 58.7 93 59.8 41.3 0 76.8-24.5 92.9-59.8z"/>
			</g>
			<g>
				<path class="s1" d="m193.5 39.9c-38.2 0-71.4 21-89 52 13.7 0 40.5-0.1 40.5-0.1 31.5 0 32.7 0.2 38.9 0.4l3.8 0.2c13.3 0.4 29.6 1.8 42.5 11.6 7 5.2 17 16.9 23.1 25.2 5.5 7.7 7.1 16.5 3.3 24.9-3.5 7.8-10.9 12.4-20 12.4h-141.8c0 0 0.9 3.6 2.2 7.6h193.5c3.4-10.4 5.2-21.2 5.2-32.1 0-56.4-45.8-102.1-102.2-102.1zm204.9 144.7h24.1v-40.3h17.5l21.6 40.3h26.6l-24.2-44.2c13-5.6 20.1-16.9 20.1-32.5 0-22.6-14.9-37.2-40.8-37.2h-44.9zm24.1-59.7v-34.5h16.2c13.9 0 20.6 6.2 20.6 17.6 0 11.2-6.7 16.9-20.5 16.9zm102.6 61.4c12.6 0 20.8-5.6 25-13.5h0.6v11.8h22.5v-57.6c0-20.3-17.2-28.9-36.3-28.9-20.4 0-33.9 9.8-37.2 25.4l22 1.7c1.6-5.6 6.6-9.8 15.1-9.8 8.1 0 12.7 4.1 12.7 11.1v0.3c0 5.5-5.8 6.2-20.7 7.7-16.9 1.5-32.1 7.2-32.1 26.3 0 16.9 12.1 25.5 28.4 25.5zm6.8-16.4c-7.3 0-12.5-3.4-12.5-9.9 0-6.7 5.5-10 13.8-11.1 5.2-0.7 13.6-2 16.5-3.9v9.1c0 9-7.4 15.8-17.8 15.8zm59.7 14.7h23.7v-85.4h-23.7zm11.9-96.4c7 0 12.8-5.4 12.8-12 0-6.6-5.8-12-12.8-12-7 0-12.8 5.4-12.8 12 0 6.6 5.8 12 12.8 12zm54.4-17.5h-23.6v113.9h23.6zm35.9 113.9h25l14.7-53.7h1l14.7 53.7h25.1l23.2-85.4h-23.9l-13 57.1h-0.8l-14-57.1h-23.5l-13.8 57.4h-0.8l-13.2-57.4h-24zm140.7 1.6c12.7 0 20.8-5.5 25-13.5h0.7v11.9h22.4v-57.6c0-20.4-17.2-28.9-36.2-28.9-20.5 0-33.9 9.8-37.2 25.3l21.9 1.8c1.6-5.7 6.7-9.8 15.2-9.8 8 0 12.6 4 12.6 11v0.4c0 5.5-5.8 6.2-20.6 7.6-16.9 1.6-32.1 7.3-32.1 26.3 0 16.9 12 25.5 28.3 25.5zm6.8-16.3c-7.3 0-12.5-3.4-12.5-9.9 0-6.7 5.5-10 13.9-11.2 5.1-0.7 13.6-1.9 16.4-3.8v9.1c0 8.9-7.4 15.8-17.8 15.8zm71.3 46.7c17.6 0 27-9 31.8-22.8l33.2-94.5-25.1-0.1-17.8 62.7h-0.9l-17.7-62.7h-24.9l30.6 87.8-1.4 3.7c-3.1 8-9 8.4-17.4 5.8l-5.3 17.7c3.4 1.4 8.9 2.4 14.9 2.4z"/>
			</g>
		</g>
	</g>
</svg>